<svg xmlns="http://www.w3.org/2000/svg" xmlns:v="https://svgstorm.com"
viewBox = "0 0 275 183"
width="275"
height="183">
<g fill="None" fill-opacity="0.0" stroke="#FEFEFD" stroke-opacity="1.00" stroke-width="0.3"><path d="
M 0.00 183.00 
L 275.00 183.00
L 275.00 0.00
L 0.00 0.00
L 0.00 183.00
M 123.00 23.00 
C 133.88 23.54 146.79 31.68 158.00 30.00 C 169.21 28.32 179.42 18.01 190.22 23.78 C 201.02 29.55 208.71 34.56 218.25 24.25 C 227.78 13.93 238.29 38.15 248.00 29.00
C 250.87 41.20 250.31 54.32 246.00 66.00
C 243.59 83.28 249.64 100.17 249.00 117.00
C 248.98 117.50 249.00 118.50 249.00 119.00
C 250.13 121.66 250.00 124.73 250.00 128.00
C 250.00 138.84 250.05 149.44 249.00 160.00
C 246.60 158.04 242.86 158.42 241.00 156.00
C 236.42 153.73 232.82 153.23 228.00 154.00
C 220.49 155.20 214.30 159.14 207.00 161.00
C 200.10 163.74 193.91 162.81 187.00 161.00
C 185.20 160.72 183.75 160.51 182.00 160.00
C 172.43 157.21 164.59 153.89 154.00 154.00 C 143.41 154.11 134.06 157.02 124.00 159.00
C 120.72 159.64 117.40 161.14 114.00 161.00
C 113.50 160.98 112.50 161.00 112.00 161.00
C 101.71 165.38 86.92 162.60 76.00 161.00
C 70.88 160.25 64.90 159.62 60.00 158.00 C 55.09 156.39 48.61 155.98 43.98 154.02 C 39.34 152.07 29.63 154.95 26.00 152.00
C 21.98 148.73 25.96 136.54 25.00 131.00 C 24.04 125.46 25.00 114.99 25.00 109.00
C 25.00 101.97 25.39 94.28 26.00 88.00
C 26.00 80.67 26.00 73.33 26.00 66.00
C 26.00 58.33 26.00 50.67 26.00 43.00
C 26.00 40.67 26.00 38.33 26.00 36.00
C 26.00 31.91 24.80 24.50 28.00 24.00
C 37.11 22.59 46.42 29.68 56.02 29.98 C 65.63 30.28 76.70 31.03 86.22 28.22 C 95.75 25.41 105.87 23.18 116.00 23.00
C 118.44 22.70 120.56 22.60 123.00 23.00 Z"/>
</g>
<g fill="None" fill-opacity="0.0" stroke="#797979" stroke-opacity="1.00" stroke-width="0.3"><path d="
M 116.00 23.00 
C 118.32 22.96 120.69 22.89 123.00 23.00
C 120.56 22.60 118.44 22.70 116.00 23.00 Z"/>
</g>
<g fill="None" fill-opacity="0.0" stroke="#070707" stroke-opacity="1.00" stroke-width="0.3"><path d="
M 123.00 23.00 
C 120.69 22.89 118.32 22.96 116.00 23.00
C 105.87 23.18 95.75 25.41 86.22 28.22 C 76.70 31.03 65.63 30.28 56.02 29.98 C 46.42 29.68 37.11 22.59 28.00 24.00
C 25.72 25.50 27.05 33.35 27.00 36.00
C 26.95 38.41 26.16 41.30 26.00 43.00
C 26.00 50.67 26.00 58.33 26.00 66.00
C 37.06 66.48 47.19 71.56 58.00 73.00
C 62.69 73.63 67.17 74.00 72.00 74.00
C 76.00 74.00 80.00 74.08 84.00 74.00
C 93.67 73.81 107.87 71.45 116.00 67.00
C 114.34 67.08 112.66 66.94 111.00 67.00
C 112.03 65.57 116.04 65.31 117.00 67.00
C 126.73 67.92 138.71 64.53 147.68 69.32 C 156.64 74.11 167.36 75.88 177.07 73.07 C 186.78 70.27 194.27 64.26 205.00 67.00
C 209.39 68.12 212.15 71.56 216.00 73.00
C 229.20 77.93 233.60 66.65 246.00 66.00
C 250.31 54.32 250.87 41.20 248.00 29.00
C 238.29 38.15 227.78 13.93 218.25 24.25 C 208.71 34.56 201.02 29.55 190.22 23.78 C 179.42 18.01 169.21 28.32 158.00 30.00 C 146.79 31.68 133.88 23.54 123.00 23.00 Z"/>
</g>
<g fill="None" fill-opacity="0.0" stroke="#909090" stroke-opacity="1.00" stroke-width="0.3"><path d="
M 26.00 36.00 
C 26.01 35.93 27.00 36.00 27.00 36.00
C 27.05 33.35 25.72 25.50 28.00 24.00
C 24.80 24.50 26.00 31.91 26.00 36.00 Z"/>
</g>
<g fill="None" fill-opacity="0.0" stroke="#616161" stroke-opacity="1.00" stroke-width="0.3"><path d="
M 26.00 43.00 
C 26.16 41.30 26.95 38.41 27.00 36.00
C 27.00 36.00 26.01 35.93 26.00 36.00
C 26.00 38.33 26.00 40.67 26.00 43.00 Z"/>
</g>
<g fill="None" fill-opacity="0.0" stroke="#F90503" stroke-opacity="1.00" stroke-width="0.3"><path d="
M 26.00 88.00 
C 26.00 94.90 26.62 102.13 26.00 109.00
C 37.11 110.35 48.35 111.79 59.00 115.00
C 59.94 114.94 62.35 113.02 64.00 114.00
C 55.64 111.59 52.79 93.03 59.00 87.00
C 58.64 83.38 54.71 81.14 56.00 77.00
C 65.48 76.52 59.76 77.87 58.00 73.00
C 47.19 71.56 37.06 66.48 26.00 66.00
C 26.00 73.33 26.00 80.67 26.00 88.00 Z"/>
</g>
<g fill="None" fill-opacity="0.0" stroke="#220D1A" stroke-opacity="1.00" stroke-width="0.3"><path d="
M 116.00 67.00 
C 116.50 66.98 117.00 67.00 117.00 67.00
C 116.04 65.31 112.03 65.57 111.00 67.00
C 112.66 66.94 114.34 67.08 116.00 67.00 Z"/>
</g>
<g fill="None" fill-opacity="0.0" stroke="#F10704" stroke-opacity="1.00" stroke-width="0.3"><path d="
M 117.00 67.00 
C 117.00 67.00 116.50 66.98 116.00 67.00
C 107.87 71.45 93.67 73.81 84.00 74.00
C 84.01 74.00 84.00 75.00 84.00 75.00
C 86.37 77.45 92.73 75.94 96.00 77.00
C 90.11 81.79 97.59 77.69 101.00 78.00
C 98.17 80.35 99.91 84.58 104.00 85.00
C 103.51 95.61 109.95 108.53 112.00 115.00
C 113.79 114.42 116.11 114.44 118.00 114.00
C 127.17 111.87 136.13 109.62 146.00 110.00
C 150.10 110.16 153.23 110.74 157.00 112.00
C 164.28 114.43 171.04 117.73 179.00 118.00
C 181.33 118.08 183.67 118.00 186.00 118.00
C 186.99 118.00 188.01 118.05 189.00 118.00
C 191.36 117.88 194.84 116.89 197.00 116.00
C 204.83 112.77 211.25 108.92 220.00 111.00
C 221.54 111.36 222.51 111.40 224.00 112.00
C 226.53 113.01 228.82 114.92 231.00 116.00
C 232.91 116.95 237.26 118.78 239.00 119.00
C 242.36 119.42 246.45 116.51 249.00 117.00
C 249.64 100.17 243.59 83.28 246.00 66.00
C 233.60 66.65 229.20 77.93 216.00 73.00
C 220.76 81.44 224.15 100.96 212.00 104.00
C 206.79 92.79 205.31 78.53 200.00 69.00
C 200.74 66.80 204.33 69.31 205.00 67.00
C 194.27 64.26 186.78 70.27 177.07 73.07 C 167.36 75.88 156.64 74.11 147.68 69.32 C 138.71 64.53 126.73 67.92 117.00 67.00 Z"/>
</g>
<g fill="None" fill-opacity="0.0" stroke="#D20101" stroke-opacity="1.00" stroke-width="0.3"><path d="
M 216.00 73.00 
C 212.15 71.56 209.39 68.12 205.00 67.00
C 204.33 69.31 200.74 66.80 200.00 69.00
C 205.31 78.53 206.79 92.79 212.00 104.00
C 224.15 100.96 220.76 81.44 216.00 73.00 Z"/>
</g>
<g fill="None" fill-opacity="0.0" stroke="#D40301" stroke-opacity="1.00" stroke-width="0.3"><path d="
M 59.00 115.00 
C 60.02 115.31 60.95 115.69 62.00 116.00
C 63.31 116.38 64.59 116.86 66.00 117.00
C 66.50 117.05 67.50 116.99 68.00 117.00
C 82.68 117.38 95.38 119.36 110.00 116.00
C 110.95 115.78 111.41 115.19 112.00 115.00
C 109.95 108.53 103.51 95.61 104.00 85.00
C 99.91 84.58 98.17 80.35 101.00 78.00
C 97.59 77.69 90.11 81.79 96.00 77.00
C 92.73 75.94 86.37 77.45 84.00 75.00
C 79.87 75.37 75.35 74.32 72.00 74.00
C 67.17 74.00 62.69 73.63 58.00 73.00
C 59.76 77.87 65.48 76.52 56.00 77.00
C 54.71 81.14 58.64 83.38 59.00 87.00
C 52.79 93.03 55.64 111.59 64.00 114.00
C 62.35 113.02 59.94 114.94 59.00 115.00 Z"/>
</g>
<g fill="None" fill-opacity="0.0" stroke="#5F0100" stroke-opacity="1.00" stroke-width="0.3"><path d="
M 84.00 75.00 
C 84.00 75.00 84.01 74.00 84.00 74.00
C 80.00 74.08 76.00 74.00 72.00 74.00
C 75.35 74.32 79.87 75.37 84.00 75.00 Z"/>
</g>
<g fill="None" fill-opacity="0.0" stroke="#FCA8A0" stroke-opacity="1.00" stroke-width="0.3"><path d="
M 25.00 109.00 
C 25.00 108.96 26.00 109.00 26.00 109.00
C 26.62 102.13 26.00 94.90 26.00 88.00
C 25.39 94.28 25.00 101.97 25.00 109.00 Z"/>
</g>
<g fill="None" fill-opacity="0.0" stroke="#F9EE7B" stroke-opacity="1.00" stroke-width="0.3"><path d="
M 26.00 152.00 
C 25.04 137.75 27.29 123.22 26.00 109.00
C 26.00 109.00 25.00 108.96 25.00 109.00
C 25.00 114.99 24.04 125.46 25.00 131.00 C 25.96 136.54 21.98 148.73 26.00 152.00 Z"/>
</g>
<g fill="None" fill-opacity="0.0" stroke="#FCD418" stroke-opacity="1.00" stroke-width="0.3"><path d="
M 26.00 152.00 
C 29.63 154.95 39.34 152.07 43.98 154.02 C 48.61 155.98 55.09 156.39 60.00 158.00 C 64.90 159.62 70.88 160.25 76.00 161.00
C 74.15 160.47 70.86 159.42 70.00 157.00
C 71.97 155.28 74.95 154.63 76.00 152.00
C 73.78 149.75 71.52 152.46 69.00 152.00
C 62.10 152.51 65.20 148.37 65.59 144.25 C 65.98 140.13 61.36 134.99 60.68 131.32 C 59.99 127.66 58.00 116.94 62.00 116.00
C 60.95 115.69 60.02 115.31 59.00 115.00
C 48.35 111.79 37.11 110.35 26.00 109.00
C 27.29 123.22 25.04 137.75 26.00 152.00 Z"/>
</g>
<g fill="None" fill-opacity="0.0" stroke="#FCE516" stroke-opacity="1.00" stroke-width="0.3"><path d="
M 118.00 114.00 
C 118.89 116.14 120.06 118.76 123.00 118.00
C 118.79 122.36 114.92 128.86 110.00 134.00
C 115.81 133.50 120.42 128.95 126.00 128.00
C 125.14 120.96 131.72 120.58 137.07 120.07 C 142.43 119.57 143.07 113.34 146.00 110.00
C 136.13 109.62 127.17 111.87 118.00 114.00 Z"/>
</g>
<g fill="None" fill-opacity="0.0" stroke="#FDD214" stroke-opacity="1.00" stroke-width="0.3"><path d="
M 118.00 114.00 
C 116.11 114.44 113.79 114.42 112.00 115.00
C 111.41 115.19 110.95 115.78 110.00 116.00
C 108.18 117.72 110.42 118.26 112.00 118.00
C 107.19 119.11 114.72 123.47 112.00 129.00
C 108.89 129.83 107.35 134.63 104.00 136.00
C 103.83 136.97 104.14 138.02 104.00 139.00
C 109.49 138.50 113.14 133.15 119.00 134.00
C 117.79 141.30 125.46 150.90 123.00 156.00
C 126.41 155.31 126.11 157.74 124.00 159.00
C 134.06 157.02 143.41 154.11 154.00 154.00 C 164.59 153.89 172.43 157.21 182.00 160.00
C 179.11 158.06 181.15 144.13 188.03 146.03 C 194.90 147.92 196.43 157.05 198.00 162.00
C 198.50 161.97 199.50 161.98 200.00 162.00
C 200.52 161.89 201.84 160.18 203.00 161.00
C 196.29 151.93 194.18 141.96 191.00 132.00
C 194.07 130.18 194.07 126.03 197.00 124.00
C 194.71 121.10 188.08 121.28 189.00 118.00
C 188.01 118.05 186.99 118.00 186.00 118.00
C 184.05 118.43 181.63 119.48 179.00 119.00
C 172.92 119.46 170.23 132.21 164.00 134.00
C 157.30 130.97 163.42 119.26 155.00 120.00
C 156.78 118.58 158.81 119.19 159.00 117.00
C 157.99 115.41 156.47 114.15 157.00 112.00
C 153.23 110.74 150.10 110.16 146.00 110.00
C 143.07 113.34 142.43 119.57 137.07 120.07 C 131.72 120.58 125.14 120.96 126.00 128.00
C 120.42 128.95 115.81 133.50 110.00 134.00
C 114.92 128.86 118.79 122.36 123.00 118.00
C 120.06 118.76 118.89 116.14 118.00 114.00 Z"/>
</g>
<g fill="None" fill-opacity="0.0" stroke="#FDCE10" stroke-opacity="1.00" stroke-width="0.3"><path d="
M 197.00 116.00 
C 200.83 116.04 210.51 120.56 199.00 119.00
C 203.99 121.77 209.68 119.33 213.00 116.00
C 211.16 122.88 205.91 128.73 210.77 135.23 C 215.63 141.73 218.63 144.81 222.00 152.00
C 223.83 152.91 226.74 152.34 228.00 154.00
C 232.82 153.23 236.42 153.73 241.00 156.00
C 243.23 156.78 245.78 157.01 248.00 158.00
C 249.22 148.24 249.08 138.09 249.00 128.00
C 249.00 125.00 249.00 122.00 249.00 119.00
C 249.00 118.50 248.98 117.50 249.00 117.00
C 246.45 116.51 242.36 119.42 239.00 119.00
C 240.35 123.77 240.76 134.42 239.00 141.00
C 234.70 143.12 234.46 151.26 226.77 146.23 C 219.08 141.20 222.64 134.30 219.67 127.33 C 216.70 120.36 211.93 117.25 220.00 111.00
C 211.25 108.92 204.83 112.77 197.00 116.00 Z"/>
</g>
<g fill="None" fill-opacity="0.0" stroke="#FDB706" stroke-opacity="1.00" stroke-width="0.3"><path d="
M 239.00 119.00 
C 237.26 118.78 232.91 116.95 231.00 116.00
C 232.14 117.18 231.50 121.50 235.00 120.00
C 238.47 128.98 233.88 136.17 231.00 144.00
C 224.67 138.07 227.24 130.69 222.29 124.71 C 217.35 118.72 216.31 112.46 227.00 116.00
C 226.64 113.87 223.47 114.48 224.00 112.00
C 222.51 111.40 221.54 111.36 220.00 111.00
C 211.93 117.25 216.70 120.36 219.67 127.33 C 222.64 134.30 219.08 141.20 226.77 146.23 C 234.46 151.26 234.70 143.12 239.00 141.00
C 240.76 134.42 240.35 123.77 239.00 119.00 Z"/>
</g>
<g fill="None" fill-opacity="0.0" stroke="#FDB30A" stroke-opacity="1.00" stroke-width="0.3"><path d="
M 179.00 119.00 
C 179.04 119.00 179.00 118.00 179.00 118.00
C 171.04 117.73 164.28 114.43 157.00 112.00
C 156.47 114.15 157.99 115.41 159.00 117.00
C 158.81 119.19 156.78 118.58 155.00 120.00
C 163.42 119.26 157.30 130.97 164.00 134.00
C 170.23 132.21 172.92 119.46 179.00 119.00 Z"/>
</g>
<g fill="None" fill-opacity="0.0" stroke="#FDA503" stroke-opacity="1.00" stroke-width="0.3"><path d="
M 231.00 116.00 
C 228.82 114.92 226.53 113.01 224.00 112.00
C 223.47 114.48 226.64 113.87 227.00 116.00
C 216.31 112.46 217.35 118.72 222.29 124.71 C 227.24 130.69 224.67 138.07 231.00 144.00
C 233.88 136.17 238.47 128.98 235.00 120.00
C 231.50 121.50 232.14 117.18 231.00 116.00 Z"/>
</g>
<g fill="None" fill-opacity="0.0" stroke="#FDC006" stroke-opacity="1.00" stroke-width="0.3"><path d="
M 69.00 152.00 
C 71.97 148.30 68.09 139.84 67.29 135.71 C 66.50 131.57 65.16 123.52 64.00 119.00
C 65.80 119.36 67.42 118.80 66.00 117.00
C 64.59 116.86 63.31 116.38 62.00 116.00
C 58.00 116.94 59.99 127.66 60.68 131.32 C 61.36 134.99 65.98 140.13 65.59 144.25 C 65.20 148.37 62.10 152.51 69.00 152.00 Z"/>
</g>
<g fill="None" fill-opacity="0.0" stroke="#FE9B02" stroke-opacity="1.00" stroke-width="0.3"><path d="
M 68.00 117.00 
C 73.80 124.51 86.41 139.89 76.00 149.00
C 78.22 148.87 82.08 149.07 82.00 152.00
C 78.33 152.10 80.68 157.58 80.00 160.00
C 90.27 163.07 101.32 161.76 112.00 161.00
C 112.50 161.00 113.50 160.98 114.00 161.00
C 117.33 159.90 115.53 154.71 116.00 152.00
C 110.38 146.84 110.83 135.97 99.00 141.00
C 100.26 139.07 102.00 137.09 104.00 136.00
C 107.35 134.63 108.89 129.83 112.00 129.00
C 114.72 123.47 107.19 119.11 112.00 118.00
C 110.42 118.26 108.18 117.72 110.00 116.00
C 95.38 119.36 82.68 117.38 68.00 117.00 Z"/>
</g>
<g fill="None" fill-opacity="0.0" stroke="#FDE715" stroke-opacity="1.00" stroke-width="0.3"><path d="
M 189.00 118.00 
C 188.08 121.28 194.71 121.10 197.00 124.00
C 194.07 126.03 194.07 130.18 191.00 132.00
C 194.18 141.96 196.29 151.93 203.00 161.00
C 201.84 160.18 200.52 161.89 200.00 162.00
C 202.64 162.10 204.58 161.62 207.00 161.00
C 214.30 159.14 220.49 155.20 228.00 154.00
C 226.74 152.34 223.83 152.91 222.00 152.00
C 218.63 144.81 215.63 141.73 210.77 135.23 C 205.91 128.73 211.16 122.88 213.00 116.00
C 209.68 119.33 203.99 121.77 199.00 119.00
C 210.51 120.56 200.83 116.04 197.00 116.00
C 194.84 116.89 191.36 117.88 189.00 118.00 Z"/>
</g>
<g fill="None" fill-opacity="0.0" stroke="#FDAE14" stroke-opacity="1.00" stroke-width="0.3"><path d="
M 69.00 152.00 
C 71.52 152.46 73.78 149.75 76.00 152.00
C 74.95 154.63 71.97 155.28 70.00 157.00
C 70.86 159.42 74.15 160.47 76.00 161.00
C 86.92 162.60 101.71 165.38 112.00 161.00
C 101.32 161.76 90.27 163.07 80.00 160.00
C 80.68 157.58 78.33 152.10 82.00 152.00
C 82.08 149.07 78.22 148.87 76.00 149.00
C 86.41 139.89 73.80 124.51 68.00 117.00
C 67.50 116.99 66.50 117.05 66.00 117.00
C 67.42 118.80 65.80 119.36 64.00 119.00
C 65.16 123.52 66.50 131.57 67.29 135.71 C 68.09 139.84 71.97 148.30 69.00 152.00 Z"/>
</g>
<g fill="None" fill-opacity="0.0" stroke="#E88603" stroke-opacity="1.00" stroke-width="0.3"><path d="
M 179.00 119.00 
C 181.63 119.48 184.05 118.43 186.00 118.00
C 183.67 118.00 181.33 118.08 179.00 118.00
C 179.00 118.00 179.04 119.00 179.00 119.00 Z"/>
</g>
<g fill="None" fill-opacity="0.0" stroke="#F7F9CF" stroke-opacity="1.00" stroke-width="0.3"><path d="
M 249.00 128.00 
C 249.00 127.96 250.00 128.00 250.00 128.00
C 250.00 124.73 250.13 121.66 249.00 119.00
C 249.00 122.00 249.00 125.00 249.00 128.00 Z"/>
</g>
<g fill="None" fill-opacity="0.0" stroke="#FBEF81" stroke-opacity="1.00" stroke-width="0.3"><path d="
M 241.00 156.00 
C 242.86 158.42 246.60 158.04 249.00 160.00
C 250.05 149.44 250.00 138.84 250.00 128.00
C 250.00 128.00 249.00 127.96 249.00 128.00
C 249.08 138.09 249.22 148.24 248.00 158.00
C 245.78 157.01 243.23 156.78 241.00 156.00 Z"/>
</g>
<g fill="None" fill-opacity="0.0" stroke="#FDB713" stroke-opacity="1.00" stroke-width="0.3"><path d="
M 104.00 136.00 
C 102.00 137.09 100.26 139.07 99.00 141.00
C 110.83 135.97 110.38 146.84 116.00 152.00
C 115.53 154.71 117.33 159.90 114.00 161.00
C 117.40 161.14 120.72 159.64 124.00 159.00
C 126.11 157.74 126.41 155.31 123.00 156.00
C 125.46 150.90 117.79 141.30 119.00 134.00
C 113.14 133.15 109.49 138.50 104.00 139.00
C 104.14 138.02 103.83 136.97 104.00 136.00 Z"/>
</g>
<g fill="None" fill-opacity="0.0" stroke="#FDB204" stroke-opacity="1.00" stroke-width="0.3"><path d="
M 182.00 160.00 
C 183.75 160.51 185.20 160.72 187.00 161.00
C 190.56 161.55 194.32 162.26 198.00 162.00
C 196.43 157.05 194.90 147.92 188.03 146.03 C 181.15 144.13 179.11 158.06 182.00 160.00 Z"/>
</g>
<g fill="None" fill-opacity="0.0" stroke="#FBECA4" stroke-opacity="1.00" stroke-width="0.3"><path d="
M 207.00 161.00 
C 204.58 161.62 202.64 162.10 200.00 162.00
C 199.50 161.98 198.50 161.97 198.00 162.00
C 194.32 162.26 190.56 161.55 187.00 161.00
C 193.91 162.81 200.10 163.74 207.00 161.00 Z"/>
</g>
<g fill="#FEFEFD" fill-opacity="1.00" stroke="None">
<path d="
M 0.00 183.00 
L 275.00 183.00
L 275.00 0.00
L 0.00 0.00
L 0.00 183.00
M 123.00 23.00 
C 133.88 23.54 146.79 31.68 158.00 30.00 C 169.21 28.32 179.42 18.01 190.22 23.78 C 201.02 29.55 208.71 34.56 218.25 24.25 C 227.78 13.93 238.29 38.15 248.00 29.00
C 250.87 41.20 250.31 54.32 246.00 66.00
C 243.59 83.28 249.64 100.17 249.00 117.00
C 248.98 117.50 249.00 118.50 249.00 119.00
C 250.13 121.66 250.00 124.73 250.00 128.00
C 250.00 138.84 250.05 149.44 249.00 160.00
C 246.60 158.04 242.86 158.42 241.00 156.00
C 236.42 153.73 232.82 153.23 228.00 154.00
C 220.49 155.20 214.30 159.14 207.00 161.00
C 200.10 163.74 193.91 162.81 187.00 161.00
C 185.20 160.72 183.75 160.51 182.00 160.00
C 172.43 157.21 164.59 153.89 154.00 154.00 C 143.41 154.11 134.06 157.02 124.00 159.00
C 120.72 159.64 117.40 161.14 114.00 161.00
C 113.50 160.98 112.50 161.00 112.00 161.00
C 101.71 165.38 86.92 162.60 76.00 161.00
C 70.88 160.25 64.90 159.62 60.00 158.00 C 55.09 156.39 48.61 155.98 43.98 154.02 C 39.34 152.07 29.63 154.95 26.00 152.00
C 21.98 148.73 25.96 136.54 25.00 131.00 C 24.04 125.46 25.00 114.99 25.00 109.00
C 25.00 101.97 25.39 94.28 26.00 88.00
C 26.00 80.67 26.00 73.33 26.00 66.00
C 26.00 58.33 26.00 50.67 26.00 43.00
C 26.00 40.67 26.00 38.33 26.00 36.00
C 26.00 31.91 24.80 24.50 28.00 24.00
C 37.11 22.59 46.42 29.68 56.02 29.98 C 65.63 30.28 76.70 31.03 86.22 28.22 C 95.75 25.41 105.87 23.18 116.00 23.00
C 118.44 22.70 120.56 22.60 123.00 23.00 Z"/>
</g>
<g fill="#797979" fill-opacity="1.00" stroke="None">
<path d="
M 116.00 23.00 
C 118.32 22.96 120.69 22.89 123.00 23.00
C 120.56 22.60 118.44 22.70 116.00 23.00 Z"/>
</g>
<g fill="#070707" fill-opacity="1.00" stroke="None">
<path d="
M 123.00 23.00 
C 120.69 22.89 118.32 22.96 116.00 23.00
C 105.87 23.18 95.75 25.41 86.22 28.22 C 76.70 31.03 65.63 30.28 56.02 29.98 C 46.42 29.68 37.11 22.59 28.00 24.00
C 25.72 25.50 27.05 33.35 27.00 36.00
C 26.95 38.41 26.16 41.30 26.00 43.00
C 26.00 50.67 26.00 58.33 26.00 66.00
C 37.06 66.48 47.19 71.56 58.00 73.00
C 62.69 73.63 67.17 74.00 72.00 74.00
C 76.00 74.00 80.00 74.08 84.00 74.00
C 93.67 73.81 107.87 71.45 116.00 67.00
C 114.34 67.08 112.66 66.94 111.00 67.00
C 112.03 65.57 116.04 65.31 117.00 67.00
C 126.73 67.92 138.71 64.53 147.68 69.32 C 156.64 74.11 167.36 75.88 177.07 73.07 C 186.78 70.27 194.27 64.26 205.00 67.00
C 209.39 68.12 212.15 71.56 216.00 73.00
C 229.20 77.93 233.60 66.65 246.00 66.00
C 250.31 54.32 250.87 41.20 248.00 29.00
C 238.29 38.15 227.78 13.93 218.25 24.25 C 208.71 34.56 201.02 29.55 190.22 23.78 C 179.42 18.01 169.21 28.32 158.00 30.00 C 146.79 31.68 133.88 23.54 123.00 23.00 Z"/>
</g>
<g fill="#909090" fill-opacity="1.00" stroke="None">
<path d="
M 26.00 36.00 
C 26.01 35.93 27.00 36.00 27.00 36.00
C 27.05 33.35 25.72 25.50 28.00 24.00
C 24.80 24.50 26.00 31.91 26.00 36.00 Z"/>
</g>
<g fill="#616161" fill-opacity="1.00" stroke="None">
<path d="
M 26.00 43.00 
C 26.16 41.30 26.95 38.41 27.00 36.00
C 27.00 36.00 26.01 35.93 26.00 36.00
C 26.00 38.33 26.00 40.67 26.00 43.00 Z"/>
</g>
<g fill="#F90503" fill-opacity="1.00" stroke="None">
<path d="
M 26.00 88.00 
C 26.00 94.90 26.62 102.13 26.00 109.00
C 37.11 110.35 48.35 111.79 59.00 115.00
C 59.94 114.94 62.35 113.02 64.00 114.00
C 55.64 111.59 52.79 93.03 59.00 87.00
C 58.64 83.38 54.71 81.14 56.00 77.00
C 65.48 76.52 59.76 77.87 58.00 73.00
C 47.19 71.56 37.06 66.48 26.00 66.00
C 26.00 73.33 26.00 80.67 26.00 88.00 Z"/>
</g>
<g fill="#220D1A" fill-opacity="1.00" stroke="None">
<path d="
M 116.00 67.00 
C 116.50 66.98 117.00 67.00 117.00 67.00
C 116.04 65.31 112.03 65.57 111.00 67.00
C 112.66 66.94 114.34 67.08 116.00 67.00 Z"/>
</g>
<g fill="#F10704" fill-opacity="1.00" stroke="None">
<path d="
M 117.00 67.00 
C 117.00 67.00 116.50 66.98 116.00 67.00
C 107.87 71.45 93.67 73.81 84.00 74.00
C 84.01 74.00 84.00 75.00 84.00 75.00
C 86.37 77.45 92.73 75.94 96.00 77.00
C 90.11 81.79 97.59 77.69 101.00 78.00
C 98.17 80.35 99.91 84.58 104.00 85.00
C 103.51 95.61 109.95 108.53 112.00 115.00
C 113.79 114.42 116.11 114.44 118.00 114.00
C 127.17 111.87 136.13 109.62 146.00 110.00
C 150.10 110.16 153.23 110.74 157.00 112.00
C 164.28 114.43 171.04 117.73 179.00 118.00
C 181.33 118.08 183.67 118.00 186.00 118.00
C 186.99 118.00 188.01 118.05 189.00 118.00
C 191.36 117.88 194.84 116.89 197.00 116.00
C 204.83 112.77 211.25 108.92 220.00 111.00
C 221.54 111.36 222.51 111.40 224.00 112.00
C 226.53 113.01 228.82 114.92 231.00 116.00
C 232.91 116.95 237.26 118.78 239.00 119.00
C 242.36 119.42 246.45 116.51 249.00 117.00
C 249.64 100.17 243.59 83.28 246.00 66.00
C 233.60 66.65 229.20 77.93 216.00 73.00
C 220.76 81.44 224.15 100.96 212.00 104.00
C 206.79 92.79 205.31 78.53 200.00 69.00
C 200.74 66.80 204.33 69.31 205.00 67.00
C 194.27 64.26 186.78 70.27 177.07 73.07 C 167.36 75.88 156.64 74.11 147.68 69.32 C 138.71 64.53 126.73 67.92 117.00 67.00 Z"/>
</g>
<g fill="#D20101" fill-opacity="1.00" stroke="None">
<path d="
M 216.00 73.00 
C 212.15 71.56 209.39 68.12 205.00 67.00
C 204.33 69.31 200.74 66.80 200.00 69.00
C 205.31 78.53 206.79 92.79 212.00 104.00
C 224.15 100.96 220.76 81.44 216.00 73.00 Z"/>
</g>
<g fill="#D40301" fill-opacity="1.00" stroke="None">
<path d="
M 59.00 115.00 
C 60.02 115.31 60.95 115.69 62.00 116.00
C 63.31 116.38 64.59 116.86 66.00 117.00
C 66.50 117.05 67.50 116.99 68.00 117.00
C 82.68 117.38 95.38 119.36 110.00 116.00
C 110.95 115.78 111.41 115.19 112.00 115.00
C 109.95 108.53 103.51 95.61 104.00 85.00
C 99.91 84.58 98.17 80.35 101.00 78.00
C 97.59 77.69 90.11 81.79 96.00 77.00
C 92.73 75.94 86.37 77.45 84.00 75.00
C 79.87 75.37 75.35 74.32 72.00 74.00
C 67.17 74.00 62.69 73.63 58.00 73.00
C 59.76 77.87 65.48 76.52 56.00 77.00
C 54.71 81.14 58.64 83.38 59.00 87.00
C 52.79 93.03 55.64 111.59 64.00 114.00
C 62.35 113.02 59.94 114.94 59.00 115.00 Z"/>
</g>
<g fill="#5F0100" fill-opacity="1.00" stroke="None">
<path d="
M 84.00 75.00 
C 84.00 75.00 84.01 74.00 84.00 74.00
C 80.00 74.08 76.00 74.00 72.00 74.00
C 75.35 74.32 79.87 75.37 84.00 75.00 Z"/>
</g>
<g fill="#FCA8A0" fill-opacity="1.00" stroke="None">
<path d="
M 25.00 109.00 
C 25.00 108.96 26.00 109.00 26.00 109.00
C 26.62 102.13 26.00 94.90 26.00 88.00
C 25.39 94.28 25.00 101.97 25.00 109.00 Z"/>
</g>
<g fill="#F9EE7B" fill-opacity="1.00" stroke="None">
<path d="
M 26.00 152.00 
C 25.04 137.75 27.29 123.22 26.00 109.00
C 26.00 109.00 25.00 108.96 25.00 109.00
C 25.00 114.99 24.04 125.46 25.00 131.00 C 25.96 136.54 21.98 148.73 26.00 152.00 Z"/>
</g>
<g fill="#FCD418" fill-opacity="1.00" stroke="None">
<path d="
M 26.00 152.00 
C 29.63 154.95 39.34 152.07 43.98 154.02 C 48.61 155.98 55.09 156.39 60.00 158.00 C 64.90 159.62 70.88 160.25 76.00 161.00
C 74.15 160.47 70.86 159.42 70.00 157.00
C 71.97 155.28 74.95 154.63 76.00 152.00
C 73.78 149.75 71.52 152.46 69.00 152.00
C 62.10 152.51 65.20 148.37 65.59 144.25 C 65.98 140.13 61.36 134.99 60.68 131.32 C 59.99 127.66 58.00 116.94 62.00 116.00
C 60.95 115.69 60.02 115.31 59.00 115.00
C 48.35 111.79 37.11 110.35 26.00 109.00
C 27.29 123.22 25.04 137.75 26.00 152.00 Z"/>
</g>
<g fill="#FCE516" fill-opacity="1.00" stroke="None">
<path d="
M 118.00 114.00 
C 118.89 116.14 120.06 118.76 123.00 118.00
C 118.79 122.36 114.92 128.86 110.00 134.00
C 115.81 133.50 120.42 128.95 126.00 128.00
C 125.14 120.96 131.72 120.58 137.07 120.07 C 142.43 119.57 143.07 113.34 146.00 110.00
C 136.13 109.62 127.17 111.87 118.00 114.00 Z"/>
</g>
<g fill="#FDD214" fill-opacity="1.00" stroke="None">
<path d="
M 118.00 114.00 
C 116.11 114.44 113.79 114.42 112.00 115.00
C 111.41 115.19 110.95 115.78 110.00 116.00
C 108.18 117.72 110.42 118.26 112.00 118.00
C 107.19 119.11 114.72 123.47 112.00 129.00
C 108.89 129.83 107.35 134.63 104.00 136.00
C 103.83 136.97 104.14 138.02 104.00 139.00
C 109.49 138.50 113.14 133.15 119.00 134.00
C 117.79 141.30 125.46 150.90 123.00 156.00
C 126.41 155.31 126.11 157.74 124.00 159.00
C 134.06 157.02 143.41 154.11 154.00 154.00 C 164.59 153.89 172.43 157.21 182.00 160.00
C 179.11 158.06 181.15 144.13 188.03 146.03 C 194.90 147.92 196.43 157.05 198.00 162.00
C 198.50 161.97 199.50 161.98 200.00 162.00
C 200.52 161.89 201.84 160.18 203.00 161.00
C 196.29 151.93 194.18 141.96 191.00 132.00
C 194.07 130.18 194.07 126.03 197.00 124.00
C 194.71 121.10 188.08 121.28 189.00 118.00
C 188.01 118.05 186.99 118.00 186.00 118.00
C 184.05 118.43 181.63 119.48 179.00 119.00
C 172.92 119.46 170.23 132.21 164.00 134.00
C 157.30 130.97 163.42 119.26 155.00 120.00
C 156.78 118.58 158.81 119.19 159.00 117.00
C 157.99 115.41 156.47 114.15 157.00 112.00
C 153.23 110.74 150.10 110.16 146.00 110.00
C 143.07 113.34 142.43 119.57 137.07 120.07 C 131.72 120.58 125.14 120.96 126.00 128.00
C 120.42 128.95 115.81 133.50 110.00 134.00
C 114.92 128.86 118.79 122.36 123.00 118.00
C 120.06 118.76 118.89 116.14 118.00 114.00 Z"/>
</g>
<g fill="#FDCE10" fill-opacity="1.00" stroke="None">
<path d="
M 197.00 116.00 
C 200.83 116.04 210.51 120.56 199.00 119.00
C 203.99 121.77 209.68 119.33 213.00 116.00
C 211.16 122.88 205.91 128.73 210.77 135.23 C 215.63 141.73 218.63 144.81 222.00 152.00
C 223.83 152.91 226.74 152.34 228.00 154.00
C 232.82 153.23 236.42 153.73 241.00 156.00
C 243.23 156.78 245.78 157.01 248.00 158.00
C 249.22 148.24 249.08 138.09 249.00 128.00
C 249.00 125.00 249.00 122.00 249.00 119.00
C 249.00 118.50 248.98 117.50 249.00 117.00
C 246.45 116.51 242.36 119.42 239.00 119.00
C 240.35 123.77 240.76 134.42 239.00 141.00
C 234.70 143.12 234.46 151.26 226.77 146.23 C 219.08 141.20 222.64 134.30 219.67 127.33 C 216.70 120.36 211.93 117.25 220.00 111.00
C 211.25 108.92 204.83 112.77 197.00 116.00 Z"/>
</g>
<g fill="#FDB706" fill-opacity="1.00" stroke="None">
<path d="
M 239.00 119.00 
C 237.26 118.78 232.91 116.95 231.00 116.00
C 232.14 117.18 231.50 121.50 235.00 120.00
C 238.47 128.98 233.88 136.17 231.00 144.00
C 224.67 138.07 227.24 130.69 222.29 124.71 C 217.35 118.72 216.31 112.46 227.00 116.00
C 226.64 113.87 223.47 114.48 224.00 112.00
C 222.51 111.40 221.54 111.36 220.00 111.00
C 211.93 117.25 216.70 120.36 219.67 127.33 C 222.64 134.30 219.08 141.20 226.77 146.23 C 234.46 151.26 234.70 143.12 239.00 141.00
C 240.76 134.42 240.35 123.77 239.00 119.00 Z"/>
</g>
<g fill="#FDB30A" fill-opacity="1.00" stroke="None">
<path d="
M 179.00 119.00 
C 179.04 119.00 179.00 118.00 179.00 118.00
C 171.04 117.73 164.28 114.43 157.00 112.00
C 156.47 114.15 157.99 115.41 159.00 117.00
C 158.81 119.19 156.78 118.58 155.00 120.00
C 163.42 119.26 157.30 130.97 164.00 134.00
C 170.23 132.21 172.92 119.46 179.00 119.00 Z"/>
</g>
<g fill="#FDA503" fill-opacity="1.00" stroke="None">
<path d="
M 231.00 116.00 
C 228.82 114.92 226.53 113.01 224.00 112.00
C 223.47 114.48 226.64 113.87 227.00 116.00
C 216.31 112.46 217.35 118.72 222.29 124.71 C 227.24 130.69 224.67 138.07 231.00 144.00
C 233.88 136.17 238.47 128.98 235.00 120.00
C 231.50 121.50 232.14 117.18 231.00 116.00 Z"/>
</g>
<g fill="#FDC006" fill-opacity="1.00" stroke="None">
<path d="
M 69.00 152.00 
C 71.97 148.30 68.09 139.84 67.29 135.71 C 66.50 131.57 65.16 123.52 64.00 119.00
C 65.80 119.36 67.42 118.80 66.00 117.00
C 64.59 116.86 63.31 116.38 62.00 116.00
C 58.00 116.94 59.99 127.66 60.68 131.32 C 61.36 134.99 65.98 140.13 65.59 144.25 C 65.20 148.37 62.10 152.51 69.00 152.00 Z"/>
</g>
<g fill="#FE9B02" fill-opacity="1.00" stroke="None">
<path d="
M 68.00 117.00 
C 73.80 124.51 86.41 139.89 76.00 149.00
C 78.22 148.87 82.08 149.07 82.00 152.00
C 78.33 152.10 80.68 157.58 80.00 160.00
C 90.27 163.07 101.32 161.76 112.00 161.00
C 112.50 161.00 113.50 160.98 114.00 161.00
C 117.33 159.90 115.53 154.71 116.00 152.00
C 110.38 146.84 110.83 135.97 99.00 141.00
C 100.26 139.07 102.00 137.09 104.00 136.00
C 107.35 134.63 108.89 129.83 112.00 129.00
C 114.72 123.47 107.19 119.11 112.00 118.00
C 110.42 118.26 108.18 117.72 110.00 116.00
C 95.38 119.36 82.68 117.38 68.00 117.00 Z"/>
</g>
<g fill="#FDE715" fill-opacity="1.00" stroke="None">
<path d="
M 189.00 118.00 
C 188.08 121.28 194.71 121.10 197.00 124.00
C 194.07 126.03 194.07 130.18 191.00 132.00
C 194.18 141.96 196.29 151.93 203.00 161.00
C 201.84 160.18 200.52 161.89 200.00 162.00
C 202.64 162.10 204.58 161.62 207.00 161.00
C 214.30 159.14 220.49 155.20 228.00 154.00
C 226.74 152.34 223.83 152.91 222.00 152.00
C 218.63 144.81 215.63 141.73 210.77 135.23 C 205.91 128.73 211.16 122.88 213.00 116.00
C 209.68 119.33 203.99 121.77 199.00 119.00
C 210.51 120.56 200.83 116.04 197.00 116.00
C 194.84 116.89 191.36 117.88 189.00 118.00 Z"/>
</g>
<g fill="#FDAE14" fill-opacity="1.00" stroke="None">
<path d="
M 69.00 152.00 
C 71.52 152.46 73.78 149.75 76.00 152.00
C 74.95 154.63 71.97 155.28 70.00 157.00
C 70.86 159.42 74.15 160.47 76.00 161.00
C 86.92 162.60 101.71 165.38 112.00 161.00
C 101.32 161.76 90.27 163.07 80.00 160.00
C 80.68 157.58 78.33 152.10 82.00 152.00
C 82.08 149.07 78.22 148.87 76.00 149.00
C 86.41 139.89 73.80 124.51 68.00 117.00
C 67.50 116.99 66.50 117.05 66.00 117.00
C 67.42 118.80 65.80 119.36 64.00 119.00
C 65.16 123.52 66.50 131.57 67.29 135.71 C 68.09 139.84 71.97 148.30 69.00 152.00 Z"/>
</g>
<g fill="#E88603" fill-opacity="1.00" stroke="None">
<path d="
M 179.00 119.00 
C 181.63 119.48 184.05 118.43 186.00 118.00
C 183.67 118.00 181.33 118.08 179.00 118.00
C 179.00 118.00 179.04 119.00 179.00 119.00 Z"/>
</g>
<g fill="#F7F9CF" fill-opacity="1.00" stroke="None">
<path d="
M 249.00 128.00 
C 249.00 127.96 250.00 128.00 250.00 128.00
C 250.00 124.73 250.13 121.66 249.00 119.00
C 249.00 122.00 249.00 125.00 249.00 128.00 Z"/>
</g>
<g fill="#FBEF81" fill-opacity="1.00" stroke="None">
<path d="
M 241.00 156.00 
C 242.86 158.42 246.60 158.04 249.00 160.00
C 250.05 149.44 250.00 138.84 250.00 128.00
C 250.00 128.00 249.00 127.96 249.00 128.00
C 249.08 138.09 249.22 148.24 248.00 158.00
C 245.78 157.01 243.23 156.78 241.00 156.00 Z"/>
</g>
<g fill="#FDB713" fill-opacity="1.00" stroke="None">
<path d="
M 104.00 136.00 
C 102.00 137.09 100.26 139.07 99.00 141.00
C 110.83 135.97 110.38 146.84 116.00 152.00
C 115.53 154.71 117.33 159.90 114.00 161.00
C 117.40 161.14 120.72 159.64 124.00 159.00
C 126.11 157.74 126.41 155.31 123.00 156.00
C 125.46 150.90 117.79 141.30 119.00 134.00
C 113.14 133.15 109.49 138.50 104.00 139.00
C 104.14 138.02 103.83 136.97 104.00 136.00 Z"/>
</g>
<g fill="#FDB204" fill-opacity="1.00" stroke="None">
<path d="
M 182.00 160.00 
C 183.75 160.51 185.20 160.72 187.00 161.00
C 190.56 161.55 194.32 162.26 198.00 162.00
C 196.43 157.05 194.90 147.92 188.03 146.03 C 181.15 144.13 179.11 158.06 182.00 160.00 Z"/>
</g>
<g fill="#FBECA4" fill-opacity="1.00" stroke="None">
<path d="
M 207.00 161.00 
C 204.58 161.62 202.64 162.10 200.00 162.00
C 199.50 161.98 198.50 161.97 198.00 162.00
C 194.32 162.26 190.56 161.55 187.00 161.00
C 193.91 162.81 200.10 163.74 207.00 161.00 Z"/>
</g>
</svg>
